<mxfile host="app.diagrams.net" modified="2024-02-06T19:23:33.904Z" agent="Mozilla/5.0 (Windows NT 10.0; Win64; x64) AppleWebKit/537.36 (KHTML, like Gecko) Chrome/121.0.0.0 Safari/537.36" etag="WDxoBTDZsfur7XOnbYcf" version="23.1.1" type="device">
  <diagram name="PÃ¡gina-1" id="FnR4soWVjuWoGKdaw4IL">
    <mxGraphModel dx="808" dy="435" grid="1" gridSize="10" guides="1" tooltips="1" connect="1" arrows="1" fold="1" page="1" pageScale="1" pageWidth="827" pageHeight="1169" math="0" shadow="0">
      <root>
        <mxCell id="0" />
        <mxCell id="1" parent="0" />
        <mxCell id="FAHfxBKijb2kDDM4WFCV-4" style="edgeStyle=orthogonalEdgeStyle;rounded=0;orthogonalLoop=1;jettySize=auto;html=1;exitX=0.5;exitY=1;exitDx=0;exitDy=0;" edge="1" parent="1">
          <mxGeometry relative="1" as="geometry">
            <mxPoint x="415" y="190" as="targetPoint" />
            <mxPoint x="415" y="120" as="sourcePoint" />
          </mxGeometry>
        </mxCell>
        <mxCell id="FAHfxBKijb2kDDM4WFCV-6" style="edgeStyle=orthogonalEdgeStyle;rounded=0;orthogonalLoop=1;jettySize=auto;html=1;exitX=0.5;exitY=1;exitDx=0;exitDy=0;" edge="1" parent="1">
          <mxGeometry relative="1" as="geometry">
            <mxPoint x="415" y="320" as="targetPoint" />
            <mxPoint x="415" y="250" as="sourcePoint" />
          </mxGeometry>
        </mxCell>
        <mxCell id="FAHfxBKijb2kDDM4WFCV-20" style="edgeStyle=orthogonalEdgeStyle;rounded=0;orthogonalLoop=1;jettySize=auto;html=1;entryX=1;entryY=0.75;entryDx=0;entryDy=0;startArrow=classic;startFill=1;endArrow=none;endFill=0;exitX=0;exitY=0.5;exitDx=0;exitDy=0;exitPerimeter=0;" edge="1" parent="1" source="FAHfxBKijb2kDDM4WFCV-9" target="FAHfxBKijb2kDDM4WFCV-15">
          <mxGeometry relative="1" as="geometry">
            <mxPoint x="520" y="450" as="sourcePoint" />
          </mxGeometry>
        </mxCell>
        <mxCell id="FAHfxBKijb2kDDM4WFCV-9" value="" style="fontColor=#0066CC;verticalAlign=top;verticalLabelPosition=bottom;labelPosition=center;align=center;html=1;outlineConnect=0;fillColor=#CCCCCC;strokeColor=#6881B3;gradientColor=none;gradientDirection=north;strokeWidth=2;shape=mxgraph.networks.pc;" vertex="1" parent="1">
          <mxGeometry x="475" y="460" width="100" height="70" as="geometry" />
        </mxCell>
        <mxCell id="FAHfxBKijb2kDDM4WFCV-19" style="edgeStyle=orthogonalEdgeStyle;rounded=0;orthogonalLoop=1;jettySize=auto;html=1;exitX=1;exitY=0.5;exitDx=0;exitDy=0;exitPerimeter=0;entryX=0;entryY=0.75;entryDx=0;entryDy=0;endArrow=none;endFill=0;startArrow=classic;startFill=1;" edge="1" parent="1" source="FAHfxBKijb2kDDM4WFCV-10" target="FAHfxBKijb2kDDM4WFCV-15">
          <mxGeometry relative="1" as="geometry" />
        </mxCell>
        <mxCell id="FAHfxBKijb2kDDM4WFCV-10" value="" style="fontColor=#0066CC;verticalAlign=top;verticalLabelPosition=bottom;labelPosition=center;align=center;html=1;outlineConnect=0;fillColor=#CCCCCC;strokeColor=#6881B3;gradientColor=none;gradientDirection=north;strokeWidth=2;shape=mxgraph.networks.pc;" vertex="1" parent="1">
          <mxGeometry x="260" y="460" width="100" height="70" as="geometry" />
        </mxCell>
        <mxCell id="FAHfxBKijb2kDDM4WFCV-17" style="edgeStyle=orthogonalEdgeStyle;rounded=0;orthogonalLoop=1;jettySize=auto;html=1;entryX=0;entryY=0.5;entryDx=0;entryDy=0;startArrow=classic;startFill=1;endArrow=none;endFill=0;" edge="1" parent="1" source="FAHfxBKijb2kDDM4WFCV-11" target="FAHfxBKijb2kDDM4WFCV-15">
          <mxGeometry relative="1" as="geometry">
            <mxPoint x="260" y="350" as="targetPoint" />
          </mxGeometry>
        </mxCell>
        <mxCell id="FAHfxBKijb2kDDM4WFCV-11" value="" style="fontColor=#0066CC;verticalAlign=top;verticalLabelPosition=bottom;labelPosition=center;align=center;html=1;outlineConnect=0;fillColor=#CCCCCC;strokeColor=#6881B3;gradientColor=none;gradientDirection=north;strokeWidth=2;shape=mxgraph.networks.pc;" vertex="1" parent="1">
          <mxGeometry x="120" y="400" width="100" height="70" as="geometry" />
        </mxCell>
        <mxCell id="FAHfxBKijb2kDDM4WFCV-12" value="" style="fontColor=#0066CC;verticalAlign=top;verticalLabelPosition=bottom;labelPosition=center;align=center;html=1;outlineConnect=0;fillColor=#CCCCCC;strokeColor=#6881B3;gradientColor=none;gradientDirection=north;strokeWidth=2;shape=mxgraph.networks.pc;" vertex="1" parent="1">
          <mxGeometry x="600" y="400" width="100" height="70" as="geometry" />
        </mxCell>
        <mxCell id="FAHfxBKijb2kDDM4WFCV-13" value="" style="sketch=0;pointerEvents=1;shadow=0;dashed=0;html=1;strokeColor=none;fillColor=#505050;labelPosition=center;verticalLabelPosition=bottom;verticalAlign=top;outlineConnect=0;align=center;shape=mxgraph.office.devices.modem;" vertex="1" parent="1">
          <mxGeometry x="373.5" y="200" width="83" height="50" as="geometry" />
        </mxCell>
        <mxCell id="FAHfxBKijb2kDDM4WFCV-14" value="" style="outlineConnect=0;dashed=0;verticalLabelPosition=bottom;verticalAlign=top;align=center;html=1;shape=mxgraph.aws3.internet_3;fillColor=#D2D3D3;gradientColor=none;" vertex="1" parent="1">
          <mxGeometry x="331" y="20" width="164.75" height="80" as="geometry" />
        </mxCell>
        <mxCell id="FAHfxBKijb2kDDM4WFCV-22" style="edgeStyle=orthogonalEdgeStyle;rounded=0;orthogonalLoop=1;jettySize=auto;html=1;" edge="1" parent="1" source="FAHfxBKijb2kDDM4WFCV-15" target="FAHfxBKijb2kDDM4WFCV-12">
          <mxGeometry relative="1" as="geometry">
            <mxPoint x="640" y="360" as="targetPoint" />
          </mxGeometry>
        </mxCell>
        <mxCell id="FAHfxBKijb2kDDM4WFCV-15" value="" style="image;html=1;image=img/lib/clip_art/networking/Switch_128x128.png" vertex="1" parent="1">
          <mxGeometry x="375" y="320" width="80" height="80" as="geometry" />
        </mxCell>
      </root>
    </mxGraphModel>
  </diagram>
</mxfile>
